<?xml version="1.0" standalone="no"?>
<!DOCTYPE svg PUBLIC "-//W3C//DTD SVG 20010904//EN"
 "http://www.w3.org/TR/2001/REC-SVG-20010904/DTD/svg10.dtd">
<svg version="1.0" xmlns="http://www.w3.org/2000/svg"
 width="293.000000pt" height="293.000000pt" viewBox="0 0 293.000000 293.000000"
 preserveAspectRatio="xMidYMid meet">
<metadata>
Created by potrace 1.11, written by Peter Selinger 2001-2013
</metadata>
<g transform="translate(0.000000,293.000000) scale(0.100000,-0.100000)"
fill="#000000" stroke="none">
<path d="M12 2450 l0 -470 471 0 472 0 0 470 0 470 -472 0 -471 0 0 -470z"/>
<path d="M0 880 l0 -860 858 0 859 0 0 860 0 860 -859 0 -858 0 0 -860z m1327
1 l-2 -466 -467 -1 -468 -1 0 462 c0 254 2 464 5 467 3 3 215 5 470 5 l463 0
-1 -466z"/>
<path d="M2033 962 l-43 -3 0 -470 0 -469 470 0 470 0 0 473 0 472 -428 0
c-235 0 -446 -1 -469 -3z"/>
</g>
</svg>
